<?xml version="1.0" encoding="utf-8"?>
<!-- Generator: Adobe Illustrator 26.4.1, SVG Export Plug-In . SVG Version: 6.00 Build 0)  -->
<svg version="1.1" id="Layer_1" xmlns="http://www.w3.org/2000/svg" xmlns:xlink="http://www.w3.org/1999/xlink" x="0px" y="0px"
	 viewBox="0 0 1920 1080" style="enable-background:new 0 0 1920 1080;" xml:space="preserve">
<style type="text/css">
	.st0{display:none;}
	.st1{display:inline;}
	.st2{fill:#191919;}
	.st3{fill:#1C1C1C;}
	.st4{fill:#161616;}
	.st5{fill:#232323;}
</style>
<g id="Layer_1_00000049901820017939981600000002885915845338454947_" class="st0">
	<g class="st1">
		<rect y="0" class="st2" width="1920" height="1080"/>
	</g>
</g>
<g id="Layer_2_00000031922505419758390240000006676377295402548388_">
	<path class="st3" d="M508.8,620.1c0,28.2-11.4,53.6-30,72.2c-18.4,18.4-44,30-72.2,30c-25.7,0-49.2-9.5-67.2-25.2
		c-21.4-18.7-34.9-46.3-34.9-76.9c0-26.5,10.1-50.6,26.6-68.9c18.7-20.5,45.5-33.3,75.5-33.3c28.2,0,53.6,11.4,72.2,30
		C497.5,566.6,508.8,592,508.8,620.1z"/>
	<path class="st4" d="M841.2,447c0,48.1-19.4,91.5-51,122.9c-31.4,31.4-74.9,51-122.9,51c-43.8,0-83.8-16.2-114.4-43
		c-36.5-31.9-59.5-78.8-59.5-130.9c0-45.1,17.3-86.2,45.4-117.3c31.8-34.9,77.6-56.7,128.5-56.7c48.1,0,91.5,19.4,122.9,51
		S841.2,399,841.2,447z"/>
	<path class="st5" d="M724.4,651.9c0,40-16.2,76.2-42.4,102.5c-26.2,26.2-62.5,42.4-102.5,42.4c-36.6,0-69.8-13.5-95.4-35.8
		c-30.4-26.5-49.6-65.7-49.6-109.2c0-37.6,14.3-72,37.8-97.6c26.5-29,64.7-47.2,107-47.2c40,0,76.2,16.3,102.5,42.4
		S724.4,611.8,724.4,651.9z"/>
</g>
<circle class="st4" cx="535" cy="478.1" r="190.1"/>
<g id="Layer_4">
	<path class="st3" d="M741.8,454.5c0,53-21.6,101-56.6,135.8c-35,34.8-83.3,56.2-136.6,56.2c-48.6,0-93.1-17.9-127.2-47.4
		c-40.5-35.1-66.1-87-66.1-144.6c0-49.9,19.2-95.3,50.5-129.4c35.2-38.5,86.2-62.6,142.8-62.6c53.4,0,101.6,21.5,136.6,56.2
		C720.2,353.6,741.8,401.5,741.8,454.5z"/>
</g>
</svg>
