<?xml version="1.0" encoding="utf-8"?>
<!-- Generator: Adobe Illustrator 25.3.1, SVG Export Plug-In . SVG Version: 6.00 Build 0)  -->
<svg version="1.1" id="Layer_1" xmlns="http://www.w3.org/2000/svg" xmlns:xlink="http://www.w3.org/1999/xlink" x="0px" y="0px"
	 viewBox="0 0 595.3 420.9" style="enable-background:new 0 0 595.3 420.9;" xml:space="preserve">
<style type="text/css">
	.st0{fill:#191919;}
	.st1{fill:#4E4038;}
</style>
<g id="XMLID_5_">
	<rect id="XMLID_1_" x="118.2" y="215.3" class="st0" width="358.9" height="66.7"/>
	<circle id="XMLID_2_" class="st1" cx="415.9" cy="248.6" r="11"/>
	<circle id="XMLID_3_" class="st1" cx="383.3" cy="248.6" r="11"/>
	<path id="XMLID_4_" class="st1" d="M341.8,256.1h-67.6c-4.1,0-7.6-3.4-7.6-7.6l0,0c0-4.1,3.4-7.6,7.6-7.6h67.6
		c4.1,0,7.6,3.4,7.6,7.6l0,0C349.3,252.8,345.9,256.1,341.8,256.1z"/>
</g>
<g id="XMLID_6_">
	<rect id="XMLID_10_" x="118.2" y="132.7" class="st0" width="358.9" height="66.7"/>
	<circle id="XMLID_9_" class="st1" cx="415.9" cy="166.1" r="11"/>
	<circle id="XMLID_8_" class="st1" cx="383.3" cy="166.1" r="11"/>
	<path id="XMLID_7_" class="st1" d="M341.8,173.6h-67.6c-4.1,0-7.6-3.4-7.6-7.6l0,0c0-4.1,3.4-7.6,7.6-7.6h67.6
		c4.1,0,7.6,3.4,7.6,7.6l0,0C349.3,170.2,345.9,173.6,341.8,173.6z"/>
</g>
</svg>
