<?xml version="1.0" encoding="utf-8"?>
<!-- Generator: Adobe Illustrator 25.3.1, SVG Export Plug-In . SVG Version: 6.00 Build 0)  -->
<svg version="1.1" id="Layer_1" xmlns="http://www.w3.org/2000/svg" xmlns:xlink="http://www.w3.org/1999/xlink" x="0px" y="0px"
	 viewBox="0 0 595.3 420.9" style="enable-background:new 0 0 595.3 420.9;" xml:space="preserve">
<style type="text/css">
	.st0{fill:#191919;}
	.st1{fill:#416063;}
	.st2{fill:#4E4038;}
</style>
<g id="XMLID_5_">
	<rect id="XMLID_1_" x="118.2" y="174" class="st0" width="358.9" height="66.7"/>
	<circle id="XMLID_2_" class="st1" cx="415.9" cy="207.4" r="11"/>
	<circle id="XMLID_3_" class="st1" cx="383.3" cy="207.4" r="11"/>
	<path id="XMLID_4_" class="st1" d="M341.8,214.9h-67.6c-4.1,0-7.6-3.4-7.6-7.6l0,0c0-4.1,3.4-7.6,7.6-7.6h67.6
		c4.1,0,7.6,3.4,7.6,7.6l0,0C349.3,211.5,345.9,214.9,341.8,214.9z"/>
</g>
<g id="XMLID_6_">
	<rect id="XMLID_10_" x="118.2" y="91.4" class="st0" width="358.9" height="66.7"/>
	<circle id="XMLID_9_" class="st2" cx="415.9" cy="124.8" r="11"/>
	<circle id="XMLID_8_" class="st2" cx="383.3" cy="124.8" r="11"/>
	<path id="XMLID_7_" class="st2" d="M341.8,132.3h-67.6c-4.1,0-7.6-3.4-7.6-7.6l0,0c0-4.1,3.4-7.6,7.6-7.6h67.6
		c4.1,0,7.6,3.4,7.6,7.6l0,0C349.3,128.9,345.9,132.3,341.8,132.3z"/>
</g>
<g id="XMLID_11_">
	<rect id="XMLID_15_" x="118.2" y="256.6" class="st0" width="358.9" height="66.7"/>
	<circle id="XMLID_14_" class="st2" cx="415.9" cy="290" r="11"/>
	<circle id="XMLID_13_" class="st2" cx="383.3" cy="290" r="11"/>
	<path id="XMLID_12_" class="st2" d="M341.8,297.5h-67.6c-4.1,0-7.6-3.4-7.6-7.6l0,0c0-4.1,3.4-7.6,7.6-7.6h67.6
		c4.1,0,7.6,3.4,7.6,7.6l0,0C349.3,294.1,345.9,297.5,341.8,297.5z"/>
</g>
</svg>
