<?xml version="1.0" encoding="utf-8"?>
<!-- Generator: Adobe Illustrator 26.3.1, SVG Export Plug-In . SVG Version: 6.00 Build 0)  -->
<svg version="1.1" id="Layer_1" xmlns="http://www.w3.org/2000/svg" xmlns:xlink="http://www.w3.org/1999/xlink" x="0px" y="0px"
	 viewBox="0 0 406.7 403.9" style="enable-background:new 0 0 406.7 403.9;" xml:space="preserve">
<style type="text/css">
	.st0{fill:#84A496;}
	.st1{fill:#474647;}
	.st2{fill:#84A495;}
</style>
<path id="path24_00000051356176500734190320000012224208443838483126_" class="st0" d="M204.6,313.4c-52.1,0-92-41.6-92-92
	s39.9-92,92-92s92,41.6,92,92S256.7,313.4,204.6,313.4z M204.6,381.8c88.2,0,160.3-72.1,160.3-160.3S292.8,61.1,204.6,61.1
	S44.3,133.3,44.3,221.4S116.4,381.8,204.6,381.8z"/>
<g>
	<g>
		<path class="st1" d="M35,214.5c-0.1,0-0.2,0-0.2,0l-9.9-1.7c-0.4-0.1-0.7-0.3-1-0.6s-0.3-0.7-0.3-1.1l7.6-45.6
			c0.1-0.4,0.3-0.7,0.6-1c0.3-0.2,0.6-0.3,0.9-0.3c0.1,0,0.2,0,0.2,0l9.9,1.7c0.8,0.1,1.4,0.9,1.2,1.7l-2.6,15.3l41,6.9
			c0.4,0.1,0.7,0.3,1,0.6s0.3,0.7,0.3,1.1l-2,12.1c-0.1,0.7-0.8,1.3-1.5,1.3c-0.1,0-0.2,0-0.2,0L39,198l-2.6,15.3
			C36.4,214,35.7,214.5,35,214.5z"/>
		<path class="st2" d="M32.8,165.8l9.9,1.7l-2.8,16.7l42.5,7.1l-2,12.1l-42.5-7.1L35,213l-9.9-1.7L32.8,165.8 M32.8,162.8
			c-0.6,0-1.2,0.2-1.7,0.6c-0.6,0.5-1.1,1.2-1.2,1.9l-7.6,45.6c-0.1,0.8,0.1,1.6,0.5,2.2c0.5,0.6,1.2,1.1,1.9,1.2l9.9,1.7
			c0.2,0,0.3,0,0.5,0c0.6,0,1.2-0.2,1.7-0.6c0.6-0.5,1.1-1.2,1.2-1.9l2.3-13.8l39.5,6.6c0.2,0,0.3,0,0.5,0c1.4,0,2.7-1,3-2.5l2-12.1
			c0.1-0.8-0.1-1.6-0.5-2.2s-1.2-1.1-1.9-1.2l-39.5-6.6l2.3-13.8c0.3-1.6-0.8-3.2-2.5-3.5l-9.9-1.7
			C33.1,162.8,32.9,162.8,32.8,162.8L32.8,162.8z"/>
	</g>
	<g>
		<path class="st1" d="M71,171.2c-0.2,0-0.4,0-0.6-0.1l-8.6-3.9c-0.4-0.2-0.6-0.5-0.8-0.8c-0.1-0.4-0.1-0.8,0-1.1l8.8-19.6
			c0.2-0.4,0.5-0.6,0.8-0.8c0.2-0.1,0.4-0.1,0.5-0.1c0.2,0,0.4,0,0.6,0.1l8.6,3.9c0.8,0.3,1.1,1.2,0.8,2l-8.8,19.6
			C72.1,170.8,71.6,171.2,71,171.2z"/>
		<path class="st2" d="M71.2,146.2l8.6,3.9L71,169.7l-8.6-3.9L71.2,146.2 M71.2,143.2c-0.4,0-0.7,0.1-1.1,0.2
			c-0.7,0.3-1.3,0.8-1.7,1.6l-8.8,19.6c-0.3,0.7-0.4,1.6-0.1,2.3c0.3,0.7,0.8,1.3,1.6,1.7l8.6,3.9c0.4,0.2,0.8,0.3,1.2,0.3
			c1.1,0,2.2-0.7,2.7-1.8l8.8-19.6c0.7-1.5,0-3.3-1.5-4l-8.6-3.9C72,143.3,71.6,143.2,71.2,143.2L71.2,143.2z"/>
	</g>
	<g>
		<path class="st1" d="M93.5,143.6c-7.1,0-13.8-2.7-19.3-7.8c-6-5.5-9.3-12.8-9.3-20.5c0-7.7,3.1-15.3,9-21.6
			c6.4-6.9,14-10.6,22-10.6c0.3,0,0.6,0,0.9,0c0.8,0,1.4,0.7,1.4,1.5l0,10.7c0,0.8-0.7,1.5-1.5,1.5c-5.2,0.1-9.2,1.8-12.6,5.5
			c-6.4,7-6.2,15.9,0.6,22.2c3.1,2.9,6.7,4.4,10.5,4.4h0c4.2,0,8.3-1.9,11.5-5.4c2.1-2.2,3.4-4.5,4.2-7.1l-10.7-9.9
			c-0.6-0.6-0.6-1.5-0.1-2.1l7.6-8.2c0.3-0.3,0.6-0.5,1-0.5c0,0,0,0,0.1,0c0.4,0,0.7,0.1,1,0.4l15.8,14.6c0.3,0.3,0.5,0.8,0.5,1.3
			c-0.7,7.3-4.5,15.2-10,21.2C109.8,139.8,101.8,143.6,93.5,143.6z"/>
		<path class="st2" d="M95.8,84.5c0.3,0,0.6,0,0.9,0l0,10.7c-5.6,0.1-10.1,2.1-13.7,6c-7,7.6-6.7,17.4,0.7,24.3
			c3.5,3.2,7.5,4.8,11.6,4.8c4.5,0,9-2,12.6-5.9c2.3-2.4,3.9-5.1,4.8-8.6l-11.4-10.6l7.6-8.2l15.8,14.6c-0.7,7.3-4.5,14.8-9.6,20.3
			c-6.1,6.6-13.9,10-21.5,10c-6.5,0-12.9-2.4-18.3-7.4c-11.7-10.9-11.8-27.7-0.3-40.1C81,88,88.2,84.5,95.8,84.5 M95.8,81.5
			c-8.4,0-16.4,3.8-23.1,11c-6.1,6.6-9.4,14.6-9.4,22.7c0.1,8.1,3.5,15.8,9.8,21.6c5.8,5.4,12.8,8.2,20.3,8.2
			c8.7,0,17.2-3.9,23.7-11c5.8-6.3,9.6-14.3,10.4-22.1c0.1-0.9-0.3-1.9-0.9-2.5l-15.8-14.6c-0.6-0.5-1.3-0.8-2-0.8c0,0-0.1,0-0.1,0
			c-0.8,0-1.5,0.4-2.1,1l-7.6,8.2c-1.1,1.2-1.1,3.1,0.2,4.2l10,9.3c-0.8,2-1.9,3.8-3.6,5.6c-2.9,3.2-6.6,4.9-10.4,4.9
			c-3.4,0-6.7-1.4-9.5-4c-6.1-5.7-6.3-13.7-0.5-20c3.1-3.4,6.8-5,11.5-5c1.6,0,3-1.4,3-3l0-10.7c0-1.6-1.3-2.9-2.9-3
			C96.5,81.5,96.1,81.5,95.8,81.5L95.8,81.5z"/>
	</g>
	<g>
		<path class="st1" d="M134.5,113.6c-0.2,0-0.4,0-0.5-0.1c-0.4-0.1-0.7-0.4-0.8-0.8l-21.5-48.5c-0.3-0.8,0-1.6,0.8-2l21-9.3
			c4.4-2,8.7-2.9,12.7-2.9c8.3,0,14.7,4.3,18.2,12c3.2,7.1,2.3,14.2-2.3,20l16.3,9.9c0.5,0.3,0.8,0.8,0.7,1.4c0,0.6-0.4,1-0.9,1.3
			L166,99.8c-0.2,0.1-0.4,0.1-0.6,0.1c-0.3,0-0.5-0.1-0.8-0.2l-14.7-9l-8.2,3.6l5.4,12.1c0.2,0.4,0.2,0.8,0,1.1s-0.4,0.7-0.8,0.8
			l-11.2,5C134.9,113.6,134.7,113.6,134.5,113.6z M136.6,82.7l7.8-3.4c3-1.3,5.1-3,6-5c0.9-1.8,0.8-3.8-0.2-6.1
			c-1.3-3-3.4-4.5-6.4-4.5c-1.7,0-3.6,0.5-5.7,1.4l-7.8,3.4L136.6,82.7z"/>
		<path class="st2" d="M146.1,51.5c7.5,0,13.6,3.8,16.8,11.1c3.2,7.3,1.9,14.2-3.2,19.7l17.8,10.8l-12.1,5.3L150.1,89l-0.6,0.2
			l-9.8,4.3l6,13.5l-11.2,5L113,63.6l21-9.3C138.3,52.4,142.4,51.5,146.1,51.5 M135.8,84.7l9.2-4c6.9-3,8.9-7.8,6.6-13
			c-1.6-3.5-4.2-5.4-7.8-5.4c-1.8,0-3.9,0.5-6.3,1.5l-9.2,4L135.8,84.7 M146.1,48.5C146.1,48.5,146.1,48.5,146.1,48.5
			c-4.2,0-8.7,1-13.3,3.1l-21,9.3c-1.5,0.7-2.2,2.4-1.5,4l21.5,48.5c0.3,0.7,0.9,1.3,1.7,1.6c0.3,0.1,0.7,0.2,1.1,0.2
			c0.4,0,0.8-0.1,1.2-0.3l11.2-5c0.7-0.3,1.3-0.9,1.6-1.7c0.3-0.7,0.3-1.6-0.1-2.3l-4.8-10.8l6.1-2.7l14,8.6c0.5,0.3,1,0.4,1.6,0.4
			c0.4,0,0.8-0.1,1.2-0.3l12.1-5.3c1-0.5,1.7-1.4,1.8-2.6c0.1-1.1-0.5-2.2-1.4-2.8l-14.9-9c4-6,4.6-13.1,1.5-20.1
			C162,53.2,154.9,48.5,146.1,48.5L146.1,48.5z M132.3,69.3l6.4-2.8c1.9-0.8,3.6-1.3,5.1-1.3c1.5,0,3.6,0.4,5.1,3.6
			c0.8,1.8,0.9,3.4,0.2,4.8c-0.8,1.6-2.6,3.1-5.3,4.2l-6.4,2.8L132.3,69.3L132.3,69.3z"/>
	</g>
	<g>
		<path class="st1" d="M174.7,94.3c-0.5,0-1-0.3-1.3-0.7c-0.3-0.4-0.3-1-0.1-1.4L196.7,39c0.2-0.5,0.8-0.9,1.4-0.9
			c0,0,12.1-0.1,12.1-0.1c0.6,0,1.1,0.3,1.4,0.9l24,52.9c0.2,0.5,0.2,1-0.1,1.4c-0.3,0.4-0.7,0.7-1.3,0.7c0,0-12.9,0.1-12.9,0.1
			c-0.6,0-1.1-0.4-1.4-0.9l-4.4-10.4l-22.6,0.1l-4.3,10.5c-0.2,0.6-0.8,0.9-1.4,0.9C187.3,94.2,174.7,94.3,174.7,94.3z M198,70.5
			l12.3-0.1l-6.3-14.9L198,70.5z M197.2,36.8c-0.6,0-1.1-0.4-1.4-0.9c-0.2-0.5-0.1-1.2,0.3-1.6l10.2-11c0.3-0.3,0.7-0.5,1.1-0.5
			c0,0,12.7-0.1,12.7-0.1c0.6,0,1.2,0.4,1.4,1c0.2,0.6,0,1.3-0.5,1.7l-13.7,11c-0.3,0.2-0.6,0.3-0.9,0.3
			C206.4,36.7,197.2,36.8,197.2,36.8z"/>
		<path class="st2" d="M220.1,24.2l-13.7,11l-9.2,0.1l10.2-11L220.1,24.2 M210.2,39.5l24,52.9l-12.9,0.1l-4.8-11.3l-24.6,0.1
			l-4.6,11.4l-12.6,0.1L198,39.6L210.2,39.5 M195.8,72l16.8-0.1l-8.5-20.3L195.8,72 M220.1,21.2C220.1,21.2,220.1,21.2,220.1,21.2
			l-12.8,0.1c-0.8,0-1.6,0.4-2.2,1l-10.2,11c-0.8,0.9-1,2.2-0.5,3.2c0.3,0.6,0.7,1,1.2,1.3c-0.1,0.2-0.2,0.4-0.3,0.6l-23.4,53.2
			c-0.4,0.9-0.3,2,0.2,2.9c0.6,0.8,1.5,1.4,2.5,1.4c0,0,0,0,0,0l12.6-0.1c1.2,0,2.3-0.7,2.8-1.9l3.9-9.5l20.6-0.1l4,9.5
			c0.5,1.1,1.6,1.8,2.8,1.8c0,0,0,0,0,0l12.9-0.1c1,0,2-0.5,2.5-1.4c0.5-0.9,0.6-1.9,0.2-2.9l-24-52.9c-0.5-1.1-1.6-1.8-2.7-1.8
			c0,0,0,0,0,0l-0.6,0l12.4-10c1-0.8,1.4-2.1,0.9-3.3C222.5,22,221.4,21.2,220.1,21.2L220.1,21.2z M200.3,69l3.9-9.5l4,9.5L200.3,69
			L200.3,69z"/>
	</g>
	<g>
		<path class="st1" d="M246.3,101c-0.2,0-0.4,0-0.6-0.1l-11.4-4.5c-0.8-0.3-1.1-1.2-0.8-1.9l19.7-49.3c0.2-0.6,0.8-0.9,1.4-0.9
			c0.2,0,0.4,0,0.6,0.1l37.2,14.9c0.8,0.3,1.1,1.2,0.8,1.9l-3.7,9.2c-0.1,0.4-0.4,0.7-0.8,0.8c-0.2,0.1-0.4,0.1-0.6,0.1
			c-0.2,0-0.4,0-0.6-0.1l-24.4-9.8l-4.1,10.2l21.4,8.5c0.8,0.3,1.1,1.2,0.8,1.9l-3.7,9.2c-0.1,0.4-0.4,0.7-0.8,0.8
			c-0.2,0.1-0.4,0.1-0.6,0.1c-0.2,0-0.4,0-0.6-0.1l-21.4-8.5l-6.6,16.6c-0.1,0.4-0.4,0.7-0.8,0.8C246.7,100.9,246.5,101,246.3,101z"
			/>
		<path class="st2" d="M254.6,45.6l37.2,14.9l-3.7,9.2l-25.8-10.3l-5.2,13l22.8,9.1l-3.7,9.2l-22.8-9.1l-7.2,18l-11.4-4.5
			L254.6,45.6 M254.6,42.6c-1.2,0-2.3,0.7-2.8,1.9l-19.7,49.3c-0.6,1.5,0.1,3.3,1.7,3.9l11.4,4.5c0.4,0.1,0.7,0.2,1.1,0.2
			c0.4,0,0.8-0.1,1.2-0.2c0.7-0.3,1.3-0.9,1.6-1.6l6-15.2l20,8c0.4,0.1,0.7,0.2,1.1,0.2c0.4,0,0.8-0.1,1.2-0.2
			c0.7-0.3,1.3-0.9,1.6-1.6l3.7-9.2c0.6-1.5-0.1-3.3-1.7-3.9l-20-8l3-7.5l23.1,9.2c0.4,0.1,0.7,0.2,1.1,0.2c0.4,0,0.8-0.1,1.2-0.2
			c0.7-0.3,1.3-0.9,1.6-1.6l3.7-9.2c0.3-0.7,0.3-1.6,0-2.3c-0.3-0.7-0.9-1.3-1.6-1.6l-37.2-14.9C255.3,42.7,255,42.6,254.6,42.6
			L254.6,42.6z"/>
	</g>
	<g>
		<path class="st1" d="M285.4,123c-0.3,0-0.6-0.1-0.9-0.3l-9.8-7.4c-0.7-0.5-0.8-1.4-0.3-2.1l31.9-42.4c0.2-0.3,0.6-0.5,1-0.6
			c0.1,0,0.1,0,0.2,0c0.3,0,0.6,0.1,0.9,0.3l9.8,7.4c0.7,0.5,0.8,1.4,0.3,2.1l-31.9,42.4c-0.2,0.3-0.6,0.5-1,0.6
			C285.5,123,285.4,123,285.4,123z"/>
		<path class="st2" d="M307.5,71.7l9.8,7.4l-31.9,42.4l-9.8-7.4L307.5,71.7 M307.5,68.7c-0.1,0-0.3,0-0.4,0c-0.8,0.1-1.5,0.5-2,1.2
			l-31.9,42.4c-1,1.3-0.7,3.2,0.6,4.2l9.8,7.4c0.5,0.4,1.2,0.6,1.8,0.6c0.1,0,0.3,0,0.4,0c0.8-0.1,1.5-0.5,2-1.2l31.9-42.4
			c1-1.3,0.7-3.2-0.6-4.2l-9.8-7.4C308.8,68.9,308.1,68.7,307.5,68.7L307.5,68.7z"/>
	</g>
	<g>
		<path class="st1" d="M328.2,160.8c-8.3-0.4-16.1-4.9-21.8-12.6c-10.4-14.1-8.2-31.5,5.3-41.5c5.1-3.8,11.1-5.8,17.1-5.8
			c9.3,0,18.1,4.7,24.2,13c5.7,7.7,7.7,16.3,5.7,24.4c-0.2,0.7-0.8,1.1-1.5,1.1c-0.1,0-0.2,0-0.3,0l-10.5-2c-0.4-0.1-0.7-0.3-1-0.6
			c-0.2-0.3-0.3-0.8-0.2-1.1c1.1-4.9,0.2-9.3-2.7-13.2c-3.1-4.2-7.5-6.6-12.2-6.6c-3.3,0-6.5,1.1-9.5,3.3
			c-7.3,5.4-8.7,14.3-3.2,21.6c2.9,3.9,6.9,6,11.9,6.4c0.4,0,0.8,0.2,1,0.5c0.3,0.3,0.4,0.7,0.3,1.1l-1.2,10.7
			C329.7,160.2,329.1,160.8,328.2,160.8C328.3,160.8,328.3,160.8,328.2,160.8z"/>
		<path class="st2" d="M328.9,102.4c8.6,0,17,4.3,23,12.4c5.5,7.4,7.3,15.5,5.4,23.1l-10.5-2c1.2-5.3,0.2-10.2-2.9-14.4
			c-3.5-4.7-8.3-7.2-13.4-7.2c-3.5,0-7.1,1.2-10.4,3.6c-8,5.9-9.5,15.8-3.6,23.7c3.2,4.3,7.5,6.6,13,7l-1.2,10.7
			c-7.9-0.4-15.1-4.5-20.6-12c-9.8-13.2-7.9-29.9,5-39.4C317.7,104.2,323.3,102.4,328.9,102.4 M328.9,99.4v3V99.4
			C328.9,99.4,328.9,99.4,328.9,99.4c-6.4,0-12.6,2.1-18,6.1c-6.9,5.1-11.2,12.3-12.2,20.4c-1,7.9,1.4,16.2,6.6,23.3
			c6,8.1,14.1,12.8,22.9,13.2c0,0,0.1,0,0.1,0c1.5,0,2.8-1.1,3-2.7l1.2-10.7c0.1-0.8-0.2-1.6-0.7-2.2c-0.5-0.6-1.3-1-2.1-1.1
			c-4.6-0.3-8.2-2.2-10.8-5.8c-5-6.7-3.8-14.6,2.9-19.6c2.7-2,5.7-3,8.6-3c4.2,0,8.1,2.1,11,6c2.6,3.6,3.4,7.5,2.4,12
			c-0.2,0.8,0,1.6,0.4,2.3c0.4,0.7,1.1,1.1,1.9,1.3l10.5,2c0.2,0,0.4,0.1,0.6,0.1c1.4,0,2.6-0.9,2.9-2.3c2.1-8.5,0-17.6-5.9-25.7
			C347.9,104.3,338.6,99.4,328.9,99.4L328.9,99.4z"/>
	</g>
	<g>
		<path class="st1" d="M353.8,216.8c-13.8,0-25.2-9.8-28.3-24.5c-3.6-17,5.8-32.5,21.9-35.9c2.1-0.5,4.2-0.7,6.3-0.7
			c13.8,0,25.2,9.8,28.4,24.5c3.6,17-5.8,32.5-21.9,35.9C358,216.5,355.9,216.8,353.8,216.8z M354.4,171c-1.2,0-2.5,0.1-3.8,0.4
			c-4.4,0.9-7.9,3.2-10.1,6.6c-2.1,3.2-2.8,7.3-1.9,11.4c1.6,7.3,7.2,11.9,14.5,11.9c0,0,0,0,0,0c1.2,0,2.5-0.1,3.8-0.4
			c8.9-1.9,13.8-9.3,12-18C367.3,175.7,361.6,171,354.4,171z"/>
		<path class="st2" d="M353.7,157.2c12.9,0,23.8,9.1,26.9,23.3c3.5,16.3-5.3,30.8-20.8,34.1c-2,0.4-4.1,0.6-6,0.6
			c-13,0-23.8-9.1-26.9-23.3c-3.5-16.4,5.3-30.8,20.8-34.1C349.7,157.4,351.7,157.2,353.7,157.2 M353.1,202.9c1.3,0,2.7-0.1,4.1-0.4
			c9.9-2.1,15.1-10.5,13.1-19.8c-1.7-7.9-8-13.1-16-13.1c-1.3,0-2.7,0.1-4.1,0.4c-9.9,2.1-15.1,10.5-13.1,19.8
			C338.8,197.7,345.1,202.9,353.1,202.9 M353.7,154.2v3V154.2c-2.2,0-4.4,0.2-6.7,0.7c-8.3,1.8-15.2,6.6-19.4,13.5
			c-4.2,6.9-5.5,15.5-3.7,24.2c3.3,15.4,15.3,25.7,29.8,25.7c2.2,0,4.4-0.2,6.7-0.7c8.3-1.8,15.2-6.6,19.4-13.6
			c4.2-6.9,5.5-15.5,3.6-24.1C380.2,164.5,368.2,154.2,353.7,154.2L353.7,154.2z M353.1,199.9c-6.5,0-11.6-4.2-13-10.8
			c-0.8-3.7-0.2-7.4,1.7-10.3c2-3,5.1-5.1,9.1-5.9c1.2-0.3,2.4-0.4,3.5-0.4c6.5,0,11.6,4.2,13,10.8c1.7,7.8-2.8,14.5-10.8,16.2
			C355.4,199.8,354.2,199.9,353.1,199.9L353.1,199.9z"/>
	</g>
</g>
<g>
	<path class="st1" d="M37.8,196.3L35,213l-9.9-1.7l7.6-45.6l9.9,1.7l-2.8,16.7l42.5,7.1l-2,12.1L37.8,196.3z"/>
	<path class="st1" d="M62.4,165.8l8.8-19.6l8.6,3.9L71,169.7L62.4,165.8z"/>
	<path class="st1" d="M101.2,105.3l7.6-8.2l15.8,14.6c-0.7,7.3-4.5,14.8-9.6,20.3c-11.3,12.2-28.1,13.5-39.8,2.6S63.4,107,74.9,94.6
		c6.3-6.8,13.9-10.4,21.8-10.1l0,10.7c-5.6,0.1-10.1,2.1-13.7,6c-7,7.6-6.7,17.4,0.7,24.3c7.3,6.7,17.3,6.4,24.2-1.1
		c2.3-2.4,3.9-5.1,4.8-8.6L101.2,105.3z"/>
	<path class="st1" d="M165.4,98.4L150.1,89l-0.6,0.2l-9.8,4.3l6,13.5l-11.2,5L113,63.6l21-9.3c13-5.7,24-2.6,28.9,8.3
		c3.2,7.3,1.9,14.2-3.2,19.7l17.8,10.8L165.4,98.4z M137.5,63.7l-9.2,4l7.5,16.9l9.2-4c6.9-3,8.9-7.8,6.6-13
		C149.2,62.3,144.3,60.7,137.5,63.7z"/>
	<path class="st1" d="M216.5,81.2l-24.6,0.1l-4.6,11.4l-12.6,0.1L198,39.6l12.1-0.1l24,52.9l-12.9,0.1L216.5,81.2z M212.6,71.9
		l-8.5-20.3L195.8,72L212.6,71.9z M206.4,35.2l-9.2,0.1l10.2-11l12.7-0.1L206.4,35.2z"/>
	<path class="st1" d="M262.4,59.3l-5.2,13l22.8,9.1l-3.7,9.2l-22.8-9.1l-7.2,18l-11.4-4.5l19.7-49.3l37.2,14.9l-3.7,9.2L262.4,59.3z
		"/>
	<path class="st1" d="M307.5,71.7l9.8,7.4l-31.9,42.4l-9.8-7.4L307.5,71.7z"/>
	<path class="st1" d="M312.7,107.9c12.9-9.5,29.4-6.4,39.2,6.9c5.5,7.4,7.3,15.5,5.4,23.1l-10.5-2c1.2-5.3,0.2-10.2-2.9-14.4
		c-5.9-8-15.7-9.5-23.7-3.6c-8,5.9-9.5,15.8-3.6,23.7c3.2,4.3,7.5,6.6,13,7l-1.2,10.7c-7.9-0.4-15.1-4.5-20.6-12
		C297.9,134.1,299.8,117.4,312.7,107.9z"/>
	<path class="st1" d="M347.6,157.8c15.4-3.3,29.4,6.3,32.9,22.6c3.5,16.3-5.3,30.8-20.8,34.1c-15.5,3.3-29.4-6.3-32.9-22.6
		C323.4,175.6,332.2,161.1,347.6,157.8z M357.2,202.5c9.9-2.1,15.1-10.5,13.1-19.8c-2-9.3-10.2-14.8-20.1-12.7
		c-9.9,2.1-15.1,10.5-13.1,19.8C339.1,199,347.3,204.6,357.2,202.5z"/>
</g>
</svg>
