<?xml version="1.0" encoding="utf-8"?>
<!-- Generator: Adobe Illustrator 26.3.1, SVG Export Plug-In . SVG Version: 6.00 Build 0)  -->
<svg version="1.1" id="Layer_1" xmlns="http://www.w3.org/2000/svg" xmlns:xlink="http://www.w3.org/1999/xlink" x="0px" y="0px"
	 viewBox="0 0 440.8 123.9" style="enable-background:new 0 0 440.8 123.9;" xml:space="preserve">
<style type="text/css">
	.st0{fill:#474647;}
</style>
<g>
	<path class="st0" d="M30.1,52.6H14v-9.5h43.9v9.5H41.8v40.9H30.1V52.6z"/>
	<path class="st0" d="M59.3,68.7h20.4v9H59.3V68.7z"/>
	<path class="st0" d="M123.7,67.5h10.7V88c-5.5,4.2-13.2,6.4-20.4,6.4c-15.8,0-27.5-10.9-27.5-26.1s11.7-26.1,27.7-26.1
		c8.9,0,16.2,3,21.1,8.7l-7.5,6.9c-3.7-3.9-7.9-5.7-13-5.7c-9.8,0-16.5,6.6-16.5,16.1c0,9.4,6.7,16.1,16.3,16.1
		c3.2,0,6.1-0.6,9.1-2.2V67.5z"/>
	<path class="st0" d="M177.3,93.5l-9.7-14H167h-10.2v14h-11.7V43.1H167c13.5,0,21.9,7,21.9,18.3c0,7.6-3.8,13.1-10.4,15.9l11.3,16.2
		H177.3z M166.3,52.6h-9.5v17.6h9.5c7.1,0,10.7-3.3,10.7-8.8C177.1,55.8,173.5,52.6,166.3,52.6z"/>
	<path class="st0" d="M231.3,82.7h-23.4l-4.5,10.8h-12l22.5-50.4h11.5L248,93.5h-12.2L231.3,82.7z M227.6,73.8l-8-19.3l-8,19.3
		H227.6z M221.9,39h-8.8l9.7-10.4h12.1L221.9,39z"/>
	<path class="st0" d="M264.9,52.5v13.3h23.3v9.4h-23.3v18.4h-11.7V43.1h38.1v9.4H264.9z"/>
	<path class="st0" d="M299.2,43.1h11.7v50.4h-11.7V43.1z"/>
	<path class="st0" d="M319.7,68.3c0-15.2,11.7-26.1,27.4-26.1c8.7,0,16,3.2,20.7,8.9l-7.5,6.9c-3.4-3.9-7.6-5.9-12.7-5.9
		c-9.4,0-16.1,6.6-16.1,16.1s6.7,16.1,16.1,16.1c5,0,9.3-2,12.7-6l7.5,6.9c-4.8,5.8-12,9-20.8,9C331.3,94.4,319.7,83.5,319.7,68.3z"
		/>
	<path class="st0" d="M371.4,68.3c0-15,11.7-26.1,27.6-26.1c15.8,0,27.6,11,27.6,26.1S414.8,94.4,399,94.4
		C383,94.4,371.4,83.3,371.4,68.3z M414.7,68.3c0-9.6-6.8-16.1-15.8-16.1s-15.8,6.6-15.8,16.1S390,84.4,399,84.4
		S414.7,77.9,414.7,68.3z"/>
</g>
</svg>
